<?xml version="1.0" encoding="UTF-8" standalone="no"?>
<!-- Created with Inkscape (http://www.inkscape.org/) -->

<svg
   width="94.560822mm"
   height="20.732609mm"
   viewBox="0 0 94.560822 20.732609"
   version="1.1"
   id="svg1"
   xmlns="http://www.w3.org/2000/svg"
   xmlns:svg="http://www.w3.org/2000/svg">
  <defs
     id="defs1" />
  <g
     id="layer1"
     transform="translate(-9.9393132,-6.1303801)">
    <path
       style="font-size:21.642px;font-family:'Noto Sans';-inkscape-font-specification:'Noto Sans';letter-spacing:-1.02641px;word-spacing:-0.91281px;fill:#b3b3b3;stroke:#b3b3b3;stroke-width:0.225438"
       d="m 39.159607,27.9083 -5.08587,-13.547892 h -0.08657 q 0.06493,0.670902 0.10821,1.817928 0.04328,1.125384 0.04328,2.358978 V 27.9083 h -1.79628 V 12.455912 h 2.878386 l 4.76124,12.66057 h 0.08657 l 4.847808,-12.66057 h 2.856744 V 27.9083 h -1.926138 v -9.500838 q 0,-1.125384 0.04328,-2.229126 0.06493,-1.103742 0.10821,-1.796286 h -0.08657 L 40.761115,27.9083 Z M 57.567706,13.94921 q -2.48883,0 -3.917202,1.666434 -1.428372,1.666434 -1.428372,4.566462 0,2.878386 1.320162,4.566462 1.341804,1.666434 4.00377,1.666434 1.017174,0 1.926138,-0.173136 0.908964,-0.173136 1.774644,-0.43284 v 1.688076 q -0.86568,0.32463 -1.796286,0.476124 -0.908964,0.151494 -2.185842,0.151494 -2.358978,0 -3.938844,-0.97389 -1.579866,-0.97389 -2.38062,-2.770176 -0.779112,-1.796286 -0.779112,-4.22019 0,-2.337336 0.844038,-4.11198 0.86568,-1.796286 2.532114,-2.791818 1.666434,-1.017174 4.047054,-1.017174 2.445546,0 4.263474,0.908964 l -0.779112,1.644792 q -0.714186,-0.32463 -1.601508,-0.584334 -0.86568,-0.259704 -1.904496,-0.259704 z m 10.119219,-1.493298 q 3.02988,0 4.414968,1.19031 1.385088,1.19031 1.385088,3.35451 0,1.276878 -0.584334,2.402262 -0.562692,1.103742 -1.926138,1.796286 -1.341804,0.692544 -3.657498,0.692544 H 65.544367 V 27.9083 h -1.94778 V 12.455912 Z m -0.173136,1.666434 h -1.969422 v 6.103044 h 1.558224 q 2.207484,0 3.289584,-0.714186 1.0821,-0.714186 1.0821,-2.423904 0,-1.493298 -0.952248,-2.229126 -0.952248,-0.735828 -3.008238,-0.735828 z M 85.727099,27.9083 h -2.207484 l -4.090338,-6.70902 -4.155265,6.70902 h -2.05599 l 5.129155,-8.050824 -4.804525,-7.401564 h 2.1642 l 3.787351,6.05976 3.808992,-6.05976 h 2.05599 l -4.782882,7.35828 z"
       id="text2"
       transform="scale(1.2176712,0.82123975)"
       aria-label="MCPX" />
    <path
       id="path2"
       style="fill:#b3b3b3;stroke:#b3b3b3;stroke-width:0.216538"
       d="m 20.174621,6.2560404 a 2.4602513,2.1441655 0 0 0 -0.737423,0.227893 l -8.108032,4.0374796 a 2.4602512,2.1441654 0 0 0 -1.239718,1.852083 l -0.04186,8.138522 a 2.4602512,2.1441654 0 0 0 0.19327,0.794267 l 10.059335,-5.030702 a 0.83313745,0.88500145 89.999998 0 0 0.468188,-0.785998 z m 2.500622,0.6325195 0.360702,7.8289801 a 0.33582171,0.35672708 89.999998 0 0 0.525549,0.281119 l 7.253821,-3.680912 a 2.4602512,2.1441654 0 0 0 -0.852144,-0.72347 z m 8.502324,6.7246541 -7.201628,3.522266 a 0.8330502,0.88490878 89.999998 0 0 -0.47594,0.782381 l 0.410828,7.512203 5.991882,-2.983798 a 2.4602511,2.1441653 0 0 0 1.239201,-1.852082 z m -10.261906,4.811592 a 0.329243,0.34973884 89.999998 0 0 -0.230477,0.03514 l -8.418607,4.339788 a 0.96206668,1.0219567 89.999998 0 1 -0.08423,0.03824 l 7.152018,3.635954 a 2.4602514,2.1441656 0 0 0 2.137854,0.12454 l -0.269234,-7.860502 a 0.329243,0.34973884 89.999998 0 0 -0.287321,-0.31316 z" />
  </g>
</svg>
